<svg xmlns="http://www.w3.org/2000/svg" xmlns:xlink="http://www.w3.org/1999/xlink" width="40" zoomAndPan="magnify" viewBox="0 0 30 30.000001" height="40" preserveAspectRatio="xMidYMid meet" version="1.2"><defs><clipPath id="7b4cfc7211"><path d="M 8 22 L 22 22 L 22 28.304688 L 8 28.304688 Z M 8 22 "/></clipPath><clipPath id="afa0f0348e"><path d="M 12 16.96875 L 22.886719 16.96875 L 22.886719 25.679688 L 12 25.679688 Z M 12 16.96875 "/></clipPath><clipPath id="b26118c85c"><path d="M 16.09375 8.632812 L 18.546875 8.632812 L 18.546875 11.101562 L 16.09375 11.101562 Z M 16.09375 8.632812 "/></clipPath><clipPath id="b8c927b061"><path d="M 12.902344 6.035156 L 18 6.035156 L 18 11.117188 L 12.902344 11.117188 Z M 12.902344 6.035156 "/></clipPath><clipPath id="672e6bf5dd"><path d="M 13 6.035156 L 17 6.035156 L 17 11 L 13 11 Z M 13 6.035156 "/></clipPath></defs><g id="d43b470030"><path style=" stroke:none;fill-rule:nonzero;fill:#f6b900;fill-opacity:1;" d="M 15.378906 14.09375 C 12.359375 14.09375 9.910156 11.644531 9.910156 8.621094 C 9.910156 5.601562 12.359375 3.152344 15.378906 3.152344 C 18.402344 3.152344 20.851562 5.601562 20.851562 8.621094 C 20.851562 11.644531 18.402344 14.09375 15.378906 14.09375 Z M 22.777344 4.757812 C 20.386719 0.675781 15.140625 -0.699219 11.054688 1.6875 C 6.972656 4.078125 5.597656 9.324219 7.988281 13.40625 L 15.382812 26.050781 L 22.777344 13.40625 C 24.277344 10.824219 24.390625 7.519531 22.777344 4.757812 "/><g clip-rule="nonzero" clip-path="url(#7b4cfc7211)"><path style=" stroke:none;fill-rule:nonzero;fill:#f6b900;fill-opacity:1;" d="M 15.378906 28.28125 C 13.703125 28.28125 12.121094 28.019531 10.921875 27.546875 C 9.59375 27.019531 8.863281 26.269531 8.863281 25.433594 C 8.863281 24.238281 10.320312 23.257812 12.765625 22.8125 L 12.921875 23.6875 C 10.839844 24.066406 9.753906 24.855469 9.753906 25.433594 C 9.753906 25.867188 10.3125 26.347656 11.25 26.71875 C 12.347656 27.152344 13.8125 27.390625 15.378906 27.390625 C 16.945312 27.390625 18.414062 27.152344 19.511719 26.71875 C 20.449219 26.347656 21.007812 25.867188 21.007812 25.433594 C 21.007812 24.855469 19.917969 24.066406 17.835938 23.6875 L 17.996094 22.8125 C 20.4375 23.257812 21.898438 24.238281 21.898438 25.433594 C 21.898438 26.269531 21.164062 27.019531 19.835938 27.546875 C 18.640625 28.019531 17.054688 28.28125 15.378906 28.28125 "/></g><path style=" stroke:none;fill-rule:nonzero;fill:#f6b900;fill-opacity:1;" d="M 15.378906 12.601562 C 13.1875 12.601562 11.402344 10.816406 11.402344 8.621094 C 11.402344 6.429688 13.1875 4.644531 15.378906 4.644531 C 17.574219 4.644531 19.359375 6.429688 19.359375 8.621094 C 19.359375 10.816406 17.574219 12.601562 15.378906 12.601562 "/><g clip-rule="nonzero" clip-path="url(#afa0f0348e)"><path style=" stroke:none;fill-rule:nonzero;fill:#ffffff;fill-opacity:1;" d="M 22.582031 17.121094 C 22.558594 17.03125 22.472656 16.96875 22.382812 16.976562 C 19.257812 17.21875 16.660156 19.351562 15.363281 22.710938 C 14.644531 21.613281 13.558594 21.4375 12.9375 21.4375 C 12.476562 21.4375 12.152344 21.527344 12.136719 21.53125 C 12.066406 21.550781 12.011719 21.613281 12 21.6875 C 11.992188 21.761719 12.027344 21.835938 12.09375 21.875 C 13.589844 22.761719 14.511719 24.246094 15.023438 25.335938 C 15.117188 25.542969 15.3125 25.671875 15.527344 25.671875 C 15.777344 25.671875 15.988281 25.511719 16.066406 25.261719 C 17.914062 19.417969 22.429688 17.359375 22.472656 17.339844 C 22.558594 17.300781 22.601562 17.207031 22.582031 17.121094 Z M 22.582031 17.121094 "/></g><g clip-rule="nonzero" clip-path="url(#b26118c85c)"><path style=" stroke:none;fill-rule:nonzero;fill:#ffffff;fill-opacity:1;" d="M 17.953125 9.679688 L 17.242188 10.390625 C 17.195312 10.433594 17.140625 10.457031 17.082031 10.457031 C 17.027344 10.457031 16.96875 10.433594 16.925781 10.390625 L 16.578125 10.042969 C 16.492188 9.953125 16.492188 9.8125 16.578125 9.726562 C 16.664062 9.640625 16.804688 9.640625 16.890625 9.726562 L 17.082031 9.917969 L 17.636719 9.363281 C 17.722656 9.277344 17.863281 9.277344 17.953125 9.363281 C 18.039062 9.453125 18.039062 9.59375 17.953125 9.679688 Z M 17.320312 8.652344 C 16.644531 8.652344 16.09375 9.199219 16.09375 9.878906 C 16.09375 10.554688 16.644531 11.101562 17.320312 11.101562 C 17.996094 11.101562 18.546875 10.554688 18.546875 9.878906 C 18.546875 9.199219 17.996094 8.652344 17.320312 8.652344 "/></g><g clip-rule="nonzero" clip-path="url(#b8c927b061)"><path style=" stroke:none;fill-rule:nonzero;fill:#ffffff;fill-opacity:1;" d="M 17.386719 6.960938 C 17.320312 6.902344 17.226562 6.875 17.136719 6.886719 C 17.085938 6.894531 17.027344 6.898438 16.960938 6.898438 C 16.726562 6.898438 16.40625 6.835938 16.128906 6.546875 C 15.800781 6.210938 15.503906 6.050781 15.199219 6.050781 C 14.894531 6.050781 14.597656 6.210938 14.269531 6.546875 C 13.914062 6.917969 13.484375 6.917969 13.261719 6.886719 C 13.171875 6.875 13.078125 6.902344 13.011719 6.960938 C 12.941406 7.023438 12.902344 7.109375 12.902344 7.199219 L 12.902344 7.902344 C 12.902344 7.921875 12.917969 8.460938 13.191406 9.109375 C 13.441406 9.710938 13.976562 10.527344 15.074219 10.996094 C 15.113281 11.011719 15.15625 11.019531 15.199219 11.019531 C 15.242188 11.019531 15.285156 11.011719 15.324219 10.996094 C 15.566406 10.890625 15.777344 10.773438 15.96875 10.640625 C 15.917969 10.550781 15.875 10.457031 15.84375 10.359375 C 15.65625 10.492188 15.445312 10.613281 15.203125 10.714844 C 15.199219 10.714844 15.199219 10.714844 15.195312 10.714844 C 14.390625 10.371094 13.8125 9.796875 13.476562 9.003906 C 13.222656 8.40625 13.207031 7.898438 13.207031 7.898438 L 13.207031 7.199219 C 13.207031 7.199219 13.207031 7.195312 13.210938 7.191406 C 13.210938 7.1875 13.214844 7.1875 13.214844 7.1875 L 13.21875 7.1875 C 13.5 7.226562 14.039062 7.226562 14.488281 6.757812 C 14.753906 6.488281 14.984375 6.355469 15.199219 6.355469 C 15.304688 6.355469 15.417969 6.386719 15.535156 6.457031 C 15.652344 6.523438 15.777344 6.625 15.910156 6.757812 C 16.359375 7.226562 16.898438 7.226562 17.179688 7.1875 C 17.179688 7.1875 17.183594 7.1875 17.1875 7.191406 C 17.191406 7.195312 17.191406 7.199219 17.191406 7.199219 L 17.191406 7.894531 C 17.191406 7.902344 17.1875 8.074219 17.132812 8.335938 C 17.195312 8.328125 17.257812 8.324219 17.320312 8.324219 C 17.363281 8.324219 17.402344 8.324219 17.445312 8.328125 C 17.492188 8.078125 17.496094 7.914062 17.496094 7.898438 L 17.496094 7.199219 C 17.496094 7.109375 17.457031 7.023438 17.386719 6.960938 "/></g><g clip-rule="nonzero" clip-path="url(#672e6bf5dd)"><path style=" stroke:none;fill-rule:nonzero;fill:#ffffff;fill-opacity:1;" d="M 15.5 8.535156 L 15.5 9.058594 C 15.5 9.226562 15.367188 9.363281 15.199219 9.363281 C 15.03125 9.363281 14.898438 9.226562 14.898438 9.058594 L 14.898438 8.535156 C 14.796875 8.449219 14.730469 8.320312 14.730469 8.175781 C 14.730469 7.917969 14.941406 7.707031 15.199219 7.707031 C 15.457031 7.707031 15.667969 7.917969 15.667969 8.175781 C 15.667969 8.320312 15.601562 8.449219 15.5 8.535156 Z M 15.636719 7.042969 C 15.382812 6.78125 15.246094 6.753906 15.199219 6.753906 C 15.152344 6.753906 15.015625 6.78125 14.761719 7.042969 C 14.375 7.441406 13.9375 7.570312 13.585938 7.597656 L 13.585938 7.90625 C 13.589844 7.957031 13.617188 8.378906 13.824219 8.871094 C 14.101562 9.523438 14.5625 10.007812 15.199219 10.316406 C 15.417969 10.210938 15.605469 10.089844 15.769531 9.957031 C 15.769531 9.929688 15.765625 9.902344 15.765625 9.878906 C 15.765625 9.234375 16.160156 8.679688 16.722656 8.445312 C 16.796875 8.15625 16.808594 7.945312 16.8125 7.90625 L 16.8125 7.597656 C 16.460938 7.570312 16.023438 7.441406 15.636719 7.042969 "/></g></g></svg>